<?xml version="1.0" encoding="UTF-8"?>
<svg id="Layer_1" xmlns="http://www.w3.org/2000/svg" version="1.1" viewBox="0 0 1682 2000">
  <!-- Generator: Adobe Illustrator 30.5.1, SVG Export Plug-In . SVG Version: 2.1.4 Build 3)  -->
  <defs>
    <style>
      .st0 {
        fill: #1a3a27;
      }
    </style>
  </defs>
  <path class="st0" d="M874.24,1027.61c2.28,2.33,2.03,6.27-.56,8.81l-28.51,27.96c-2.59,2.54-6.53,2.71-8.81.39l-28.89-29.47c-2.28-2.33-2.03-6.27.56-8.81l28.51-27.96c2.59-2.54,6.53-2.71,8.81-.39l28.89,29.47ZM784.27,831.75l.34.04c-.1.85,16.89,99.94,50.62,158.93l-29.82,29.24c-58.3-34.89-157.01-53.83-157.87-53.75l-.03-.34c-87.13,20.54-195.15-13.72-276.18-96.38-111.81-114.05-130.54-277.68-41.75-364.76,88.79-87.07,251.98-65.13,363.79,48.93,81.03,82.66,113.16,191.36,90.91,278.09ZM609.14,942.86l-5.42,5.32c5.26-.19,10.48-.58,15.63-1.16-1.85.21-3.72.39-5.59.55l-4.62-4.71ZM624.91,946.32c-1.84.26-3.68.5-5.54.7,13.62-1.54,26.8-4.44,39.33-8.75-1.54.53-3.1,1.04-4.66,1.53l-20.48-20.89-18.11,17.76,9.45,9.64ZM550.94,932.37l-21.39-21.82-18.11,17.76,7,7.14c-1.46-.48-2.93-.97-4.39-1.48,9.07,3.12,18.17,5.75,27.23,7.86l9.66-9.47ZM551.67,944.04c6.49,1.23,12.95,2.2,19.37,2.9-2.2-.24-4.4-.51-6.61-.82l-7.29-7.44-5.46,5.36ZM546.58,943.02c1.7.36,3.39.7,5.09,1.02-1.69-.32-3.39-.66-5.09-1.02ZM541.32,941.85c1.71.4,3.42.78,5.13,1.14-1.71-.36-3.42-.74-5.13-1.14ZM301.3,692.94c2.07,10.81,4.86,21.69,8.36,32.56-.47-1.47-.94-2.94-1.39-4.42l3.91,3.98,18.11-17.76-21.39-21.82-7.61,7.46ZM300.34,687.64c.3,1.76.62,3.52.95,5.28-.34-1.76-.66-3.52-.95-5.28ZM299.5,682.32c.26,1.73.53,3.45.83,5.18-.29-1.73-.57-3.46-.83-5.18ZM302.72,679.16l-4.2-4.28c.29,2.48.61,4.96.98,7.44l3.22-3.16ZM305.88,620.88l18.11-17.76-17.38-17.73c.52-1.55,1.06-3.09,1.62-4.63-4.55,12.45-7.72,25.57-9.52,39.15.25-1.85.52-3.69.81-5.52l6.36,6.49ZM298.04,625.52c-.34,3.21-.6,6.45-.78,9.71.12-2.12.27-4.24.46-6.34l1.85-1.82-1.52-1.55ZM298.7,619.95c-.25,1.85-.47,3.71-.66,5.57.2-1.87.42-3.72.66-5.57ZM454.29,475.32c2.11-.14,4.22-.25,6.35-.33-3.26.12-6.5.32-9.72.59l1.52,1.55,1.85-1.82ZM439.77,476.85c-10,1.42-19.73,3.58-29.13,6.52l17.38,17.73,18.11-17.76-6.36-6.49ZM445.3,476.14c-1.85.21-3.69.44-5.53.7,1.83-.26,3.68-.49,5.53-.7ZM450.92,475.59c-1.87.16-3.73.34-5.58.55,1.85-.21,3.71-.39,5.58-.55ZM507.67,478.16c1.71.29,3.43.6,5.14.92-4.2-.8-8.39-1.47-12.56-2.05l4.2,4.28,3.22-3.16ZM510.64,487.63l21.39,21.82,18.11-17.76-3.91-3.98c-9.33-3.05-18.68-5.56-27.99-7.53l-7.61,7.46ZM518.23,480.17c-1.75-.37-3.51-.73-5.26-1.06,1.75.33,3.51.69,5.26,1.06ZM763.38,730.26c-1.79-9.36-4.12-18.77-6.98-28.17l-7-7.14-18.11,17.76,21.39,21.82,9.66-9.47c.37,1.74.72,3.47,1.05,5.2ZM764.32,735.48c-.29-1.71-.6-3.42-.93-5.13.33,1.71.64,3.42.93,5.13ZM758.86,740.84l7.29,7.44c-.5-4.25-1.1-8.52-1.83-12.8l-5.46,5.36ZM651.8,888.63l-21.39-21.82-18.11,17.76,21.39,21.82,18.11-17.76ZM639.88,912.71l23.43,23.9c-1.52.57-3.05,1.12-4.59,1.65,10.07-3.47,19.73-7.84,28.86-13.13l-29.59-30.18-18.11,17.76ZM437.36,559.5l21.39,21.82,18.11-17.76-21.39-21.82-18.11,17.76ZM449.28,535.42l-21.39-21.82-18.11,17.76,21.39,21.82,18.11-17.76ZM697.39,690.77l-18.11,17.76,21.39,21.82,18.11-17.76-21.39-21.82ZM725.09,706.39l18.11-17.76-21.39-21.82-18.11,17.76,21.39,21.82ZM617.91,756.32l-21.39-21.82-18.11,17.76,21.39,21.82,18.11-17.76ZM605.99,780.4l21.39,21.82,18.11-17.76-21.39-21.82-18.11,17.76ZM587.18,676.09l-21.39-21.82-18.11,17.76,21.39,21.82,18.11-17.76ZM575.26,700.17l21.39,21.82,18.11-17.76-21.39-21.82-18.11,17.76ZM544.64,717.81l18.11-17.76-21.39-21.82-18.11,17.76,21.39,21.82ZM516.94,702.19l-18.11,17.76,21.39,21.82,18.11-17.76-21.39-21.82ZM559.6,647.96l-21.39-21.82-18.11,17.76,21.39,21.82,18.11-17.76ZM513.78,650.1l-18.11,17.76,21.39,21.82,18.11-17.76-21.39-21.82ZM489.36,674.05l-18.11,17.76,21.39,21.82,18.11-17.76-21.39-21.82ZM464.93,698.01l-18.11,17.76,21.39,21.82,18.11-17.76-21.39-21.82ZM474.4,743.91l21.39,21.82,18.11-17.76-21.39-21.82-18.11,17.76ZM501.98,772.04l21.39,21.82,18.11-17.76-21.39-21.82-18.11,17.76ZM547.79,769.91l18.11-17.76-21.39-21.82-18.11,17.76,21.39,21.82ZM572.22,745.95l18.11-17.76-21.39-21.82-18.11,17.76,21.39,21.82ZM624.23,750.13l18.11-17.76-21.39-21.82-18.11,17.76,21.39,21.82ZM648.66,726.17l18.11-17.76-21.39-21.82-18.11,17.76,21.39,21.82ZM639.19,680.27l-21.39-21.82-18.11,17.76,21.39,21.82,18.11-17.76ZM611.61,652.14l-21.39-21.82-18.11,17.76,21.39,21.82,18.11-17.76ZM584.03,624l-21.39-21.82-18.11,17.76,21.39,21.82,18.11-17.76ZM556.45,595.87l-21.39-21.82-18.11,17.76,21.39,21.82,18.11-17.76ZM510.63,598.01l-18.11,17.76,21.39,21.82,18.11-17.76-21.39-21.82ZM486.2,621.96l-18.11,17.76,21.39,21.82,18.11-17.76-21.39-21.82ZM480.01,615.65l-21.39-21.82-18.11,17.76,21.39,21.82,18.11-17.76ZM434.2,617.79l-18.11,17.76,21.39,21.82,18.11-17.76-21.39-21.82ZM443.66,663.68l21.39,21.82,18.11-17.76-21.39-21.82-18.11,17.76ZM437.35,669.88l-18.11,17.76,21.39,21.82,18.11-17.76-21.39-21.82ZM412.92,693.83l-18.11,17.76,21.39,21.82,18.11-17.76-21.39-21.82ZM422.39,739.73l21.39,21.82,18.11-17.76-21.39-21.82-18.11,17.76ZM449.97,767.87l21.39,21.82,18.11-17.76-21.39-21.82-18.11,17.76ZM477.55,796l21.39,21.82,18.11-17.76-21.39-21.82-18.11,17.76ZM505.13,824.13l21.39,21.82,18.11-17.76-21.39-21.82-18.11,17.76ZM550.95,822l18.11-17.76-21.39-21.82-18.11,17.76,21.39,21.82ZM575.37,798.04l18.11-17.76-21.39-21.82-18.11,17.76,21.39,21.82ZM581.57,804.36l21.39,21.82,18.11-17.76-21.39-21.82-18.11,17.76ZM609.15,832.49l21.39,21.82,18.11-17.76-21.39-21.82-18.11,17.76ZM654.96,830.35l18.11-17.76-21.39-21.82-18.11,17.76,21.39,21.82ZM679.39,806.4l18.11-17.76-21.39-21.82-18.11,17.76,21.39,21.82ZM669.92,760.5l-21.39-21.82-18.11,17.76,21.39,21.82,18.11-17.76ZM676.24,754.3l18.11-17.76-21.39-21.82-18.11,17.76,21.39,21.82ZM691.2,684.45l-21.39-21.82-18.11,17.76,21.39,21.82,18.11-17.76ZM663.62,656.32l-21.39-21.82-18.11,17.76,21.39,21.82,18.11-17.76ZM636.04,628.18l-21.39-21.82-18.11,17.76,21.39,21.82,18.11-17.76ZM608.46,600.05l-21.39-21.82-18.11,17.76,21.39,21.82,18.11-17.76ZM580.88,571.91l-21.39-21.82-18.11,17.76,21.39,21.82,18.11-17.76ZM587.19,565.72l18.11-17.76-21.39-21.82-18.11,17.76,21.39,21.82ZM577.72,519.82l-21.39-21.82-18.11,17.76,21.39,21.82,18.11-17.76ZM531.91,521.96l-18.11,17.76,21.39,21.82,18.11-17.76-21.39-21.82ZM507.48,545.92l-18.11,17.76,21.39,21.82,18.11-17.76-21.39-21.82ZM483.05,569.87l-18.11,17.76,21.39,21.82,18.11-17.76-21.39-21.82ZM431.04,565.7l-18.11,17.76,21.39,21.82,18.11-17.76-21.39-21.82ZM406.62,589.65l-18.11,17.76,21.39,21.82,18.11-17.76-21.39-21.82ZM382.19,613.61l-18.11,17.76,21.39,21.82,18.11-17.76-21.39-21.82ZM391.66,659.51l21.39,21.82,18.11-17.76-21.39-21.82-18.11,17.76ZM385.34,665.7l-18.11,17.76,21.39,21.82,18.11-17.76-21.39-21.82ZM360.92,689.66l-18.11,17.76,21.39,21.82,18.11-17.76-21.39-21.82ZM336.49,713.61l-18.11,17.76,21.39,21.82,18.11-17.76-21.39-21.82ZM345.96,759.51l21.39,21.82,18.11-17.76-21.39-21.82-18.11,17.76ZM391.77,757.37l18.11-17.76-21.39-21.82-18.11,17.76,21.39,21.82ZM397.96,763.69l21.39,21.82,18.11-17.76-21.39-21.82-18.11,17.76ZM425.54,791.82l21.39,21.82,18.11-17.76-21.39-21.82-18.11,17.76ZM453.12,819.96l21.39,21.82,18.11-17.76-21.39-21.82-18.11,17.76ZM480.7,848.09l21.39,21.82,18.11-17.76-21.39-21.82-18.11,17.76ZM474.39,854.28l-18.11,17.76,21.39,21.82,18.11-17.76-21.39-21.82ZM483.86,900.18l21.39,21.82,18.11-17.76-21.39-21.82-18.11,17.76ZM529.67,898.04l18.11-17.76-21.39-21.82-18.11,17.76,21.39,21.82ZM554.1,874.09l18.11-17.76-21.39-21.82-18.11,17.76,21.39,21.82ZM578.53,850.13l18.11-17.76-21.39-21.82-18.11,17.76,21.39,21.82ZM584.72,856.45l21.39,21.82,18.11-17.76-21.39-21.82-18.11,17.76ZM658.11,882.44l18.11-17.76-21.39-21.82-18.11,17.76,21.39,21.82ZM682.54,858.49l18.11-17.76-21.39-21.82-18.11,17.76,21.39,21.82ZM706.97,834.53l18.11-17.76-21.39-21.82-18.11,17.76,21.39,21.82ZM731.4,810.57l18.11-17.76-21.39-21.82-18.11,17.76,21.39,21.82ZM721.93,764.67l-21.39-21.82-18.11,17.76,21.39,21.82,18.11-17.76ZM728.24,758.48l18.11-17.76-21.39-21.82-18.11,17.76,21.39,21.82ZM753,691.66c-.02-.06-.04-.13-.06-.19h0c.02.06.04.13.07.19ZM754.76,696.89c-.44-1.36-.89-2.71-1.36-4.07.46,1.36.92,2.71,1.36,4.07ZM756.4,702.08c-.45-1.47-.91-2.94-1.39-4.41.47,1.47.94,2.94,1.39,4.41ZM752.93,691.46c-.43-1.22-.86-2.45-1.3-3.67.37,1.02.73,2.05,1.09,3.07.07.2.14.4.21.6ZM751.15,686.49c-4.85-13.18-10.74-26.29-17.67-39.2.95,1.77,1.88,3.55,2.79,5.33l-8.15,7.99,21.39,21.82.08-.08c.03.09.07.18.1.27h0c.47,1.23.92,2.46,1.37,3.68.02.06.05.13.07.19ZM731.96,644.47c-5.52-10.04-11.67-19.95-18.43-29.66.68.98,1.36,1.96,2.03,2.94l-15.02,14.73,21.39,21.82,10.03-9.83ZM694.23,638.67l-18.11,17.76,21.39,21.82,18.11-17.76-21.39-21.82ZM688.04,632.36l-21.39-21.82-18.11,17.76,21.39,21.82,18.11-17.76ZM660.46,604.22l-21.39-21.82-18.11,17.76,21.39,21.82,18.11-17.76ZM632.88,576.09l-21.39-21.82-18.11,17.76,21.39,21.82,18.11-17.76ZM639.2,569.9l18.18-17.83c-7.81-6.86-15.83-13.27-24.01-19.25l-15.56,15.26,21.39,21.82ZM626.05,527.61c-9.87-6.82-19.96-12.98-30.18-18.5,1.16.63,2.32,1.25,3.47,1.9l-9.11,8.94,21.39,21.82,14.43-14.15ZM633.37,532.82c-2.35-1.72-4.71-3.41-7.09-5.05,2.38,1.64,4.74,3.33,7.09,5.05ZM591.18,506.62c-9.74-5.06-19.6-9.52-29.5-13.38,1.29.5,2.58,1.01,3.87,1.54l18.48,18.85,7.14-7.01ZM594.82,508.54c-1.21-.65-2.42-1.29-3.63-1.92,1.21.63,2.42,1.27,3.63,1.92ZM560.43,492.75c-1.16-.45-2.32-.88-3.48-1.31.25.09.5.19.76.29.91.34,1.82.67,2.72,1.02ZM555.43,490.88c-1.34-.49-2.68-.97-4.03-1.43.25.09.5.18.75.27h0c.6.21,1.21.43,1.81.65.48.17.97.34,1.45.52ZM550.61,489.18c-1.46-.5-2.92-.99-4.38-1.47,1.46.48,2.92.97,4.38,1.47ZM504.33,493.83l-18.11,17.76,21.39,21.82,18.11-17.76-21.39-21.82ZM479.9,517.78l-18.11,17.76,21.39,21.82,18.11-17.76-21.39-21.82ZM473.71,511.47l-21.39-21.82-18.11,17.76,21.39,21.82,18.11-17.76ZM401.37,486.55c-8.42,3.17-16.53,7-24.27,11.48l26.49,27.02,18.11-17.76-20.33-20.74ZM405.92,484.91c-1.53.53-3.05,1.07-4.55,1.64,1.51-.57,3.03-1.11,4.55-1.64ZM410.63,483.37c-1.56.49-3.11.99-4.65,1.52,1.54-.53,3.09-1.04,4.65-1.52ZM369.38,502.79c-7.07,4.65-13.78,9.9-20.09,15.74l29.87,30.47,18.11-17.76-27.89-28.45ZM373.05,500.45c-1.23.76-2.45,1.54-3.67,2.33,1.21-.8,2.43-1.57,3.67-2.33ZM377.08,498.04c-1.28.74-2.56,1.5-3.82,2.28,1.26-.78,2.54-1.54,3.82-2.28ZM385.35,555.33l21.39,21.82,18.11-17.76-21.39-21.82-18.11,17.76ZM379.04,561.52l-18.11,17.76,21.39,21.82,18.11-17.76-21.39-21.82ZM354.61,585.47l-18.11,17.76,21.39,21.82,18.11-17.76-21.39-21.82ZM348.42,579.16l-26.49-27.02c-4.63,7.65-8.62,15.69-11.95,24.05l20.33,20.74,18.11-17.76ZM309.97,576.18c-.6,1.5-1.18,3.02-1.73,4.54.56-1.52,1.13-3.04,1.73-4.54ZM312.07,627.2l21.39,21.82,18.11-17.76-21.39-21.82-18.11,17.76ZM339.65,655.33l21.39,21.82,18.11-17.76-21.39-21.82-18.11,17.76ZM333.34,661.52l-18.11,17.76,21.39,21.82,18.11-17.76-21.39-21.82ZM309.92,726.27c.44,1.36.89,2.71,1.36,4.07-.17-.48-.32-.97-.48-1.45-.21-.62-.42-1.23-.63-1.85h0c-.08-.26-.17-.52-.26-.77ZM311.8,731.86c.41,1.17.82,2.34,1.24,3.51-.33-.91-.64-1.81-.96-2.72-.09-.26-.19-.52-.28-.79ZM313.5,736.62c3.67,9.98,7.94,19.93,12.8,29.78l7.14-7.01-18.48-18.85c-.5-1.3-.98-2.61-1.46-3.92ZM328.71,771.16c6.64,12.88,14.29,25.57,22.95,37.93-1.72-2.46-3.42-4.93-5.06-7.41l14.43-14.15-21.39-21.82-9.11,8.94c-.62-1.16-1.22-2.32-1.82-3.49ZM326.31,766.41c.6,1.22,1.21,2.43,1.83,3.65-.62-1.21-1.23-2.43-1.83-3.65ZM351.66,809.1c5.81,8.29,12.06,16.44,18.77,24.39l18.18-17.83-21.39-21.82-15.56,15.26ZM394.92,809.46l18.11-17.76-21.39-21.82-18.11,17.76,21.39,21.82ZM401.12,815.78l21.39,21.82,18.11-17.76-21.39-21.82-18.11,17.76ZM428.7,843.91l21.39,21.82,18.11-17.76-21.39-21.82-18.11,17.76ZM422.38,850.11l-18.39,18.04c-.86-.77-1.71-1.55-2.56-2.34,8.52,7.83,17.3,15.12,26.28,21.87l16.07-15.76-21.39-21.82ZM432.05,890.88c9.57,6.95,19.35,13.3,29.28,19.01l10.03-9.83-21.39-21.82-15.02,14.73c-.97-.69-1.93-1.39-2.9-2.09ZM427.72,887.69c.91.69,1.83,1.36,2.75,2.03-.92-.67-1.83-1.35-2.75-2.03ZM464.43,911.64c12.67,7.1,25.55,13.2,38.53,18.26-.08-.03-.17-.07-.25-.1-1.2-.47-2.39-.94-3.59-1.42h0c-.09-.04-.18-.08-.27-.11l.08-.08-21.39-21.82-8.15,7.99c-1.66-.89-3.31-1.8-4.96-2.72ZM504.23,930.41c1.22.47,2.43.92,3.65,1.37-.21-.08-.42-.16-.62-.24-1.01-.38-2.02-.75-3.02-1.14ZM507.9,931.79c.07.02.13.05.2.07-.06-.02-.13-.05-.19-.07h0ZM509.23,932.28c1.35.49,2.7.97,4.05,1.44-1.35-.47-2.7-.95-4.05-1.44ZM557.25,926.18l18.11-17.76-21.39-21.82-18.11,17.76,21.39,21.82ZM581.68,902.22l18.11-17.76-21.39-21.82-18.11,17.76,21.39,21.82ZM587.87,908.54l21.39,21.82,18.11-17.76-21.39-21.82-18.11,17.76ZM695.3,920.37c-1.22.8-2.45,1.58-3.69,2.35,9.65-5.98,18.7-13.01,26.99-21.14,8.29-8.13,15.49-17.04,21.66-26.57-.79,1.22-1.59,2.44-2.42,3.64l-30.99-31.61-18.11,17.76,32.97,33.63c-1.02,1.06-2.05,2.11-3.11,3.15s-2.13,2.04-3.21,3.04l-32.97-33.63-18.11,17.76,30.99,31.61ZM687.58,925.13c1.29-.75,2.57-1.51,3.85-2.3-1.27.78-2.55,1.55-3.85,2.3ZM756.43,842.44c-.56,1.52-1.13,3.04-1.73,4.54l-23.43-23.9-18.11,17.76,29.59,30.18c5.46-9.03,10.03-18.59,13.69-28.59ZM740.38,874.83c.81-1.26,1.6-2.52,2.37-3.8-.77,1.28-1.56,2.54-2.37,3.8ZM758.06,837.78c-.52,1.55-1.06,3.09-1.62,4.63,4.55-12.45,7.72-25.57,9.52-39.15-.25,1.85-.52,3.69-.81,5.52l-9.45-9.64-18.11,17.76,20.48,20.89ZM766.63,797.64c-.2,1.87-.42,3.72-.66,5.57.95-7.14,1.52-14.42,1.72-21.79-.06,2.07-.14,4.13-.26,6.19l-5.42,5.32,4.62,4.71ZM766.89,755.47c.2,2.24.37,4.48.5,6.7l-14.84-15.14-18.11,17.76,21.39,21.82,11.95-11.72c0,2.1-.02,4.2-.08,6.28.22-8.45-.05-17.04-.81-25.71ZM766.84,754.9c-.2-2.2-.43-4.41-.68-6.62.26,2.21.48,4.42.68,6.62ZM710.43,610.42c.67.93,1.33,1.86,1.98,2.79-.66-.93-1.31-1.86-1.98-2.79ZM689.08,583.7c.77.87,1.53,1.74,2.28,2.61l-18.39,18.04,21.39,21.82,16.07-15.76c-6.57-9.12-13.69-18.04-21.34-26.71ZM657.4,552.09c2.2,1.93,4.38,3.91,6.55,5.92l-18.57,18.21,21.39,21.82,18.71-18.35c.6.66,1.18,1.32,1.77,1.97-3.48-3.88-7.05-7.71-10.74-11.48-6.21-6.34-12.59-12.36-19.11-18.09ZM493.65,476.22c2.19.24,4.39.51,6.59.81-2.2-.3-4.4-.57-6.59-.81ZM486.4,475.53c2.22.17,4.45.39,6.68.63-2.23-.24-4.46-.45-6.68-.63ZM461.05,474.98c2.11-.07,4.23-.12,6.36-.13l-8.78,8.61,21.39,21.82,18.11-17.76-11.75-11.98c-8.55-.67-17.01-.85-25.34-.55ZM326.84,544.51l27.89,28.45,18.11-17.76-29.87-30.47c-5.97,6.2-11.34,12.81-16.13,19.78ZM324.3,548.34c-.81,1.25-1.59,2.51-2.36,3.78.77-1.27,1.56-2.53,2.36-3.78ZM326.84,544.51c-.82,1.2-1.62,2.41-2.41,3.63.79-1.22,1.59-2.43,2.41-3.63ZM296.98,641.98c.06-2.12.14-4.24.26-6.34-.12,2.11-.2,4.22-.26,6.34ZM297.29,660.99l11.75,11.98,18.11-17.76-21.39-21.82-8.78,8.61c-.16,6.26-.06,12.6.31,18.99ZM297.83,668.26c.2,2.2.43,4.41.68,6.62-.26-2.21-.48-4.42-.68-6.62ZM297.29,660.99c.13,2.23.3,4.46.5,6.7-.2-2.24-.37-4.47-.5-6.7ZM399.44,863.97c-.65-.61-1.31-1.22-1.96-1.83l18.71-18.35-21.39-21.82-18.57,18.21c-1.95-2.2-3.88-4.41-5.76-6.64,5.59,6.62,11.48,13.11,17.68,19.44,3.7,3.78,7.47,7.43,11.28,10.99ZM597.27,948.32c-2.09.01-4.18,0-6.28-.05l11.95-11.72-21.39-21.82-18.11,17.76,14.84,15.14c-2.23-.17-4.46-.39-6.7-.63,8.65.93,17.23,1.36,25.68,1.31ZM603.71,948.18c-2.06.07-4.12.12-6.19.13,2.07-.02,4.13-.06,6.19-.13ZM767.33,875.44c-8.45,15.71-19.16,30.18-32.22,42.98-13.05,12.8-27.73,23.23-43.6,31.37,32.44,6.61,76.12,18.42,111.42,37.81-18.68-35.68-29.63-79.59-35.6-112.17ZM940,1157.26l31.36-27.24c1.57-1.36,1.63-3.78.13-5.22l-21.88-21.04c-1.32-1.27-3.38-1.32-4.76-.13l-30.09,25.99c-1.51,1.31-1.64,3.61-.29,5.08l20.61,22.29c1.3,1.4,3.47,1.52,4.92.27ZM965.02,1189.18c1.3,1.41,3.48,1.52,4.92.26l33.07-28.89c1.56-1.37,1.62-3.78.12-5.21l-21.88-21.04c-1.32-1.27-3.39-1.32-4.77-.12l-31.8,27.64c-1.51,1.31-1.63,3.61-.28,5.07l20.61,22.3ZM884.54,1102.52l20.6,22.29c1.29,1.4,3.47,1.52,4.91.28l29.65-25.6c1.58-1.36,1.64-3.78.14-5.23l-21.87-21.04c-1.31-1.26-3.37-1.32-4.75-.14l-28.38,24.35c-1.52,1.31-1.66,3.61-.29,5.09ZM883.96,1040.3c-1.38-1.33-3.57-1.32-4.93.02l-24.91,24.43c-1.37,1.34-1.42,3.52-.12,4.93l21.21,22.95c1.29,1.4,3.46,1.52,4.9.28l27.94-23.96c1.58-1.36,1.66-3.78.16-5.23l-24.24-23.42ZM995.48,1221.93c1.35,1.46,3.65,1.52,5.07.12l33.03-32.39c1.43-1.4,1.41-3.7-.03-5.08l-20.64-19.76c-1.32-1.27-3.39-1.31-4.77-.11l-33.52,29.29c-1.5,1.31-1.62,3.6-.27,5.07l21.13,22.86ZM1013.35,1254.61c1.95,1.99,5.15,2.02,7.15.07l45.4-44.53c1.99-1.95,2.02-5.16.07-7.15l-8.72-8.84c-4.89-4.98-12.89-5.06-17.87-.18l-34.58,33.91c-4.98,4.89-5.06,12.89-.18,17.87l8.72,8.84ZM1034.5,965.88l-.03.34c-.86-.08-99.57,18.86-157.87,53.75l-29.82-29.24c33.73-58.99,50.72-158.08,50.62-158.93l.34-.04c-22.25-86.73,9.88-195.42,90.91-278.09,111.81-114.05,275-136,363.79-48.93,88.79,87.07,70.06,250.71-41.75,364.76-81.03,82.66-189.06,116.93-276.18,96.38ZM925.55,842.4c-.56-1.53-1.1-3.08-1.62-4.63l20.48-20.89-18.11-17.76-9.45,9.64c-.3-1.83-.57-3.67-.81-5.52,1.81,13.59,4.97,26.71,9.52,39.16ZM915.37,797.64l4.62-4.71-5.42-5.32c-.11-2.06-.2-4.12-.26-6.19.2,7.37.77,14.65,1.72,21.79-.25-1.85-.47-3.71-.66-5.57ZM929.33,734.53l21.39-21.82-18.11-17.76-7,7.14c-2.86,9.41-5.19,18.81-6.98,28.17.33-1.73.68-3.47,1.05-5.2l9.66,9.47ZM917.68,735.48c-.73,4.28-1.33,8.55-1.83,12.8l7.29-7.44-5.46-5.36ZM918.6,730.35c-.33,1.71-.64,3.42-.93,5.13.29-1.71.6-3.42.93-5.13ZM1177.55,481.32l4.2-4.28c-4.17.57-8.36,1.25-12.56,2.05,1.72-.33,3.43-.64,5.14-.92l3.22,3.16ZM1163.75,480.17c-9.31,1.97-18.65,4.48-27.99,7.53l-3.91,3.98,18.11,17.76,21.39-21.82-7.61-7.46ZM1169.03,479.11c-1.75.33-3.51.69-5.26,1.06,1.75-.37,3.51-.73,5.26-1.06ZM1229.56,477.14l1.52-1.55c-3.22-.27-6.46-.47-9.72-.59,2.12.08,4.24.19,6.35.33l1.85,1.82ZM1235.87,483.33l18.11,17.76,17.38-17.73c-9.4-2.94-19.14-5.1-29.13-6.52l-6.36,6.49ZM1236.67,476.14c-1.85-.21-3.71-.39-5.58-.55,1.87.16,3.73.34,5.58.55ZM1242.23,476.85c-1.83-.26-3.68-.49-5.53-.7,1.85.21,3.69.44,5.53.7ZM1383.29,619.91c-1.81-13.58-4.97-26.7-9.52-39.15.56,1.53,1.1,3.07,1.62,4.62l-17.38,17.73,18.11,17.76,6.36-6.49c.3,1.83.57,3.67.81,5.52ZM1383.96,625.52c-.2-1.87-.42-3.72-.66-5.57.25,1.85.47,3.71.66,5.57ZM1382.44,627.07l1.85,1.82c.18,2.1.33,4.22.46,6.34-.19-3.26-.45-6.5-.78-9.71l-1.52,1.55ZM1373.09,685.48l-21.39,21.82,18.11,17.76,3.91-3.98c-.45,1.47-.91,2.95-1.39,4.42,3.5-10.86,6.3-21.74,8.36-32.56l-7.61-7.46ZM1382.5,682.32c.37-2.49.69-4.97.98-7.44l-4.2,4.28,3.22,3.16ZM1381.68,687.48c.29-1.72.57-3.44.82-5.16-.25,1.72-.53,3.44-.82,5.16ZM1380.7,692.91c.34-1.76.66-3.52.95-5.27-.3,1.76-.62,3.51-.95,5.27ZM1140.72,941.84c9.07-2.11,18.16-4.73,27.23-7.86-1.46.5-2.93,1-4.39,1.48l7-7.14-18.11-17.76-21.39,21.82,9.66,9.47ZM1135.55,942.99c1.71-.36,3.42-.74,5.13-1.14-1.71.4-3.42.78-5.13,1.14ZM1130.34,944.04c1.69-.32,3.39-.67,5.09-1.02-1.7.36-3.39.7-5.09,1.02ZM1124.87,938.69l-7.29,7.44c-2.21.3-4.41.57-6.61.82,6.42-.7,12.88-1.66,19.37-2.9l-5.46-5.36ZM1048.31,906.4l21.39-21.82-18.11-17.76-21.39,21.82,18.11,17.76ZM1024.01,894.95l-29.59,30.18c9.14,5.29,18.79,9.67,28.86,13.13-1.54-.53-3.07-1.08-4.59-1.65l23.43-23.9-18.11-17.76ZM963.22,712.58l18.11,17.76,21.39-21.82-18.11-17.76-21.39,21.82ZM978.3,684.57l-18.11-17.76-21.39,21.82,18.11,17.76,21.39-21.82ZM1226.53,541.74l-21.39,21.82,18.11,17.76,21.39-21.82-18.11-17.76ZM1250.83,553.19l21.39-21.82-18.11-17.76-21.39,21.82,18.11,17.76ZM1106.63,798.04l21.39-21.82-18.11-17.76-21.39,21.82,18.11,17.76ZM1082.32,786.59l-21.39,21.82,18.11,17.76,21.39-21.82-18.11-17.76ZM1186.21,765.73l21.39-21.82-18.11-17.76-21.39,21.82,18.11,17.76ZM1161.91,754.28l-21.39,21.82,18.11,17.76,21.39-21.82-18.11-17.76ZM1143.67,724.01l18.11,17.76,21.39-21.82-18.11-17.76-21.39,21.82ZM1158.75,696l-18.11-17.76-21.39,21.82,18.11,17.76,21.39-21.82ZM1213.79,737.59l21.39-21.82-18.11-17.76-21.39,21.82,18.11,17.76ZM1210.76,691.82l-18.11-17.76-21.39,21.82,18.11,17.76,21.39-21.82ZM1186.33,667.86l-18.11-17.76-21.39,21.82,18.11,17.76,21.39-21.82ZM1161.9,643.91l-18.11-17.76-21.39,21.82,18.11,17.76,21.39-21.82ZM1116.21,654.28l-21.39,21.82,18.11,17.76,21.39-21.82-18.11-17.76ZM1088.63,682.41l-21.39,21.82,18.11,17.76,21.39-21.82-18.11-17.76ZM1091.67,728.19l18.11,17.76,21.39-21.82-18.11-17.76-21.39,21.82ZM1116.09,752.14l18.11,17.76,21.39-21.82-18.11-17.76-21.39,21.82ZM1112.94,804.23l18.11,17.76,21.39-21.82-18.11-17.76-21.39,21.82ZM1137.37,828.19l18.11,17.76,21.39-21.82-18.11-17.76-21.39,21.82ZM1183.06,817.82l21.39-21.82-18.11-17.76-21.39,21.82,18.11,17.76ZM1210.64,789.68l21.39-21.82-18.11-17.76-21.39,21.82,18.11,17.76ZM1238.22,761.55l21.39-21.82-18.11-17.76-21.39,21.82,18.11,17.76ZM1265.8,733.42l21.39-21.82-18.11-17.76-21.39,21.82,18.11,17.76ZM1262.76,687.64l-18.11-17.76-21.39,21.82,18.11,17.76,21.39-21.82ZM1238.34,663.68l-18.11-17.76-21.39,21.82,18.11,17.76,21.39-21.82ZM1244.53,657.37l21.39-21.82-18.11-17.76-21.39,21.82,18.11,17.76ZM1241.49,611.59l-18.11-17.76-21.39,21.82,18.11,17.76,21.39-21.82ZM1195.8,621.96l-21.39,21.82,18.11,17.76,21.39-21.82-18.11-17.76ZM1189.48,615.77l-18.11-17.76-21.39,21.82,18.11,17.76,21.39-21.82ZM1165.05,591.81l-18.11-17.76-21.39,21.82,18.11,17.76,21.39-21.82ZM1119.36,602.19l-21.39,21.82,18.11,17.76,21.39-21.82-18.11-17.76ZM1091.78,630.32l-21.39,21.82,18.11,17.76,21.39-21.82-18.11-17.76ZM1064.2,658.45l-21.39,21.82,18.11,17.76,21.39-21.82-18.11-17.76ZM1036.62,686.59l-21.39,21.82,18.11,17.76,21.39-21.82-18.11-17.76ZM1039.66,732.36l18.11,17.76,21.39-21.82-18.11-17.76-21.39,21.82ZM1064.09,756.32l18.11,17.76,21.39-21.82-18.11-17.76-21.39,21.82ZM1057.89,762.64l-21.39,21.82,18.11,17.76,21.39-21.82-18.11-17.76ZM1030.31,790.77l-21.39,21.82,18.11,17.76,21.39-21.82-18.11-17.76ZM1033.35,836.54l18.11,17.76,21.39-21.82-18.11-17.76-21.39,21.82ZM1057.78,860.5l18.11,17.76,21.39-21.82-18.11-17.76-21.39,21.82ZM1103.47,850.13l21.39-21.82-18.11-17.76-21.39,21.82,18.11,17.76ZM1109.79,856.32l18.11,17.76,21.39-21.82-18.11-17.76-21.39,21.82ZM1134.22,880.28l18.11,17.76,21.39-21.82-18.11-17.76-21.39,21.82ZM1158.64,904.24l18.11,17.76,21.39-21.82-18.11-17.76-21.39,21.82ZM1204.34,893.87l21.39-21.82-18.11-17.76-21.39,21.82,18.11,17.76ZM1201.3,848.09l-18.11-17.76-21.39,21.82,18.11,17.76,21.39-21.82ZM1207.49,841.77l21.39-21.82-18.11-17.76-21.39,21.82,18.11,17.76ZM1235.07,813.64l21.39-21.82-18.11-17.76-21.39,21.82,18.11,17.76ZM1262.65,785.51l21.39-21.82-18.11-17.76-21.39,21.82,18.11,17.76ZM1290.23,757.37l21.39-21.82-18.11-17.76-21.39,21.82,18.11,17.76ZM1296.54,763.57l18.11,17.76,21.39-21.82-18.11-17.76-21.39,21.82ZM1342.24,753.19l21.39-21.82-18.11-17.76-21.39,21.82,18.11,17.76ZM1339.2,707.42l-18.11-17.76-21.39,21.82,18.11,17.76,21.39-21.82ZM1314.77,683.46l-18.11-17.76-21.39,21.82,18.11,17.76,21.39-21.82ZM1290.34,659.51l-18.11-17.76-21.39,21.82,18.11,17.76,21.39-21.82ZM1296.53,653.19l21.39-21.82-18.11-17.76-21.39,21.82,18.11,17.76ZM1293.5,607.42l-18.11-17.76-21.39,21.82,18.11,17.76,21.39-21.82ZM1269.07,583.46l-18.11-17.76-21.39,21.82,18.11,17.76,21.39-21.82ZM1198.95,569.87l-21.39,21.82,18.11,17.76,21.39-21.82-18.11-17.76ZM1192.63,563.68l-18.11-17.76-21.39,21.82,18.11,17.76,21.39-21.82ZM1168.21,539.72l-18.11-17.76-21.39,21.82,18.11,17.76,21.39-21.82ZM1143.78,515.77l-18.11-17.76-21.39,21.82,18.11,17.76,21.39-21.82ZM1098.09,526.14l-21.39,21.82,18.11,17.76,21.39-21.82-18.11-17.76ZM1101.12,571.91l18.11,17.76,21.39-21.82-18.11-17.76-21.39,21.82ZM1094.93,578.23l-21.39,21.82,18.11,17.76,21.39-21.82-18.11-17.76ZM1067.35,606.36l-21.39,21.82,18.11,17.76,21.39-21.82-18.11-17.76ZM1039.77,634.5l-21.39,21.82,18.11,17.76,21.39-21.82-18.11-17.76ZM1012.19,662.63l-21.39,21.82,18.11,17.76,21.39-21.82-18.11-17.76ZM987.65,736.54l18.11,17.76,21.39-21.82-18.11-17.76-21.39,21.82ZM1012.08,760.5l18.11,17.76,21.39-21.82-18.11-17.76-21.39,21.82ZM1005.89,766.81l-21.39,21.82,18.11,17.76,21.39-21.82-18.11-17.76ZM978.31,794.95l-21.39,21.82,18.11,17.76,21.39-21.82-18.11-17.76ZM981.35,840.72l18.11,17.76,21.39-21.82-18.11-17.76-21.39,21.82ZM1005.77,864.68l18.11,17.76,21.39-21.82-18.11-17.76-21.39,21.82ZM1054.63,912.59l18.11,17.76,21.39-21.82-18.11-17.76-21.39,21.82ZM1100.32,902.22l21.39-21.82-18.11-17.76-21.39,21.82,18.11,17.76ZM1106.64,908.41l18.11,17.76,21.39-21.82-18.11-17.76-21.39,21.82ZM1173.91,931.86c.07-.02.13-.05.2-.07h0c-.06.02-.13.05-.19.07ZM1168.72,933.72c1.35-.47,2.7-.95,4.05-1.44-1.35.49-2.7.97-4.05,1.44ZM1174.12,931.78c1.22-.45,2.43-.9,3.65-1.37-1.01.39-2.02.76-3.02,1.14-.21.08-.42.16-.62.24ZM1179.05,929.91c12.97-5.07,25.86-11.16,38.52-18.26-1.65.92-3.3,1.83-4.96,2.72l-8.15-7.99-21.39,21.82.08.08c-.09.04-.18.07-.27.11h0c-1.19.49-2.38.96-3.57,1.42-.09.03-.17.07-.26.1ZM1220.68,909.89c9.93-5.71,19.71-12.06,29.28-19.01-.96.7-1.93,1.4-2.9,2.09l-15.02-14.73-21.39,21.82,10.03,9.83ZM1254.3,887.68c8.98-6.75,17.76-14.04,26.28-21.87-.85.78-1.71,1.56-2.56,2.34l-18.39-18.04-21.39,21.82,16.07,15.76ZM1251.54,889.72c.92-.67,1.83-1.35,2.75-2.03-.91.69-1.83,1.36-2.75,2.03ZM1253.3,843.91l-18.11-17.76-21.39,21.82,18.11,17.76,21.39-21.82ZM1259.5,837.6l21.39-21.82-18.11-17.76-21.39,21.82,18.11,17.76ZM1287.08,809.46l21.39-21.82-18.11-17.76-21.39,21.82,18.11,17.76ZM1293.39,815.66l18.18,17.83c6.71-7.95,12.96-16.1,18.77-24.39l-15.56-15.26-21.39,21.82ZM1335.4,801.67c-1.64,2.49-3.34,4.95-5.06,7.41,8.66-12.36,16.31-25.05,22.95-37.93-.6,1.16-1.2,2.33-1.82,3.49l-9.11-8.94-21.39,21.82,14.43,14.15ZM1355.69,766.39c4.86-9.85,9.13-19.79,12.8-29.78-.48,1.31-.96,2.61-1.46,3.92l-18.48,18.85,7.14,7.01ZM1353.85,770.06c.62-1.21,1.23-2.43,1.83-3.65-.6,1.22-1.21,2.43-1.83,3.65ZM1368.96,735.37c.42-1.17.83-2.34,1.24-3.5-.09.26-.19.53-.28.79-.32.9-.63,1.81-.96,2.71ZM1370.73,730.34c.46-1.36.92-2.71,1.36-4.07-.08.25-.17.51-.26.76h0c-.2.62-.42,1.24-.63,1.86-.16.48-.32.96-.48,1.45ZM1366.78,679.29l-18.11-17.76-21.39,21.82,18.11,17.76,21.39-21.82ZM1342.35,655.33l-18.11-17.76-21.39,21.82,18.11,17.76,21.39-21.82ZM1348.54,649.01l21.39-21.82-18.11-17.76-21.39,21.82,18.11,17.76ZM1372.03,576.18c-3.33-8.36-7.32-16.39-11.95-24.05l-26.49,27.02,18.11,17.76,20.33-20.74ZM1373.75,580.71c-.56-1.52-1.13-3.03-1.73-4.53.6,1.5,1.17,3.01,1.73,4.53ZM1327.39,585.47l-21.39,21.82,18.11,17.76,21.39-21.82-18.11-17.76ZM1321.08,579.28l-18.11-17.76-21.39,21.82,18.11,17.76,21.39-21.82ZM1296.65,555.33l-18.11-17.76-21.39,21.82,18.11,17.76,21.39-21.82ZM1302.84,549.01l29.87-30.47c-6.31-5.85-13.03-11.09-20.09-15.74l-27.89,28.45,18.11,17.76ZM1304.9,498.03c-7.74-4.48-15.85-8.31-24.27-11.48l-20.33,20.74,18.11,17.76,26.49-27.02ZM1308.74,500.32c-1.26-.78-2.54-1.54-3.82-2.28,1.28.74,2.56,1.5,3.82,2.28ZM1312.62,502.79c-1.21-.8-2.43-1.57-3.66-2.33,1.23.76,2.45,1.54,3.66,2.33ZM1276.02,484.89c-1.54-.53-3.09-1.04-4.65-1.52,1.56.49,3.11.99,4.65,1.52ZM1280.63,486.55c-1.51-.57-3.03-1.11-4.55-1.64,1.53.52,3.05,1.07,4.55,1.64ZM1229.68,489.65l-21.39,21.82,18.11,17.76,21.39-21.82-18.11-17.76ZM1202.1,517.78l-21.39,21.82,18.11,17.76,21.39-21.82-18.11-17.76ZM1195.79,511.59l-18.11-17.76-21.39,21.82,18.11,17.76,21.39-21.82ZM1130.6,489.45c-1.34.47-2.68.94-4.03,1.43.48-.18.97-.34,1.45-.52.6-.22,1.21-.44,1.81-.65h0c.25-.08.5-.17.75-.26ZM1135.76,487.7c-1.46.48-2.92.97-4.38,1.47,1.46-.5,2.92-.99,4.38-1.47ZM1125.05,491.44c-1.16.43-2.32.86-3.48,1.31.91-.35,1.81-.68,2.72-1.02.25-.09.5-.19.76-.29ZM1120.32,493.24c-9.9,3.87-19.76,8.33-29.5,13.38l7.14,7.01,18.48-18.85c1.29-.52,2.58-1.03,3.87-1.54ZM1082.66,511.01c1.15-.64,2.31-1.27,3.47-1.9-10.22,5.52-20.3,11.69-30.18,18.5l14.43,14.15,21.39-21.82-9.11-8.94ZM1090.81,506.63c-1.21.63-2.42,1.27-3.63,1.92,1.21-.65,2.42-1.29,3.63-1.92ZM1048.63,532.82c-8.18,5.97-16.2,12.38-24.01,19.25l18.18,17.83,21.39-21.82-15.56-15.26ZM1055.72,527.77c-2.38,1.64-4.74,3.33-7.09,5.05,2.35-1.72,4.71-3.41,7.09-5.05ZM1049.12,576.09l18.11,17.76,21.39-21.82-18.11-17.76-21.39,21.82ZM1042.93,582.41l-21.39,21.82,18.11,17.76,21.39-21.82-18.11-17.76ZM1015.35,610.54l-21.39,21.82,18.11,17.76,21.39-21.82-18.11-17.76ZM987.77,638.67l-21.39,21.82,18.11,17.76,21.39-21.82-18.11-17.76ZM981.45,632.48l-15.02-14.73c.67-.98,1.35-1.96,2.03-2.94-6.76,9.71-12.91,19.61-18.43,29.66l10.03,9.83,21.39-21.82ZM945.72,652.62c.91-1.78,1.85-3.56,2.79-5.33-6.92,12.91-12.82,26.02-17.67,39.21.02-.05.04-.1.06-.16.46-1.24.91-2.48,1.39-3.71h0c.03-.1.07-.19.1-.28l.08.08,21.39-21.82-8.15-7.99ZM930.37,687.79c-.44,1.22-.87,2.45-1.3,3.67.07-.2.14-.4.21-.6.36-1.02.72-2.05,1.09-3.07ZM929.07,691.47c-.02.06-.04.13-.06.19.02-.06.04-.12.07-.19h0ZM926.99,697.67c-.47,1.47-.94,2.94-1.39,4.41.45-1.47.91-2.94,1.39-4.41ZM928.6,692.82c-.46,1.36-.92,2.71-1.36,4.07.44-1.36.89-2.71,1.36-4.07ZM935.64,740.72l18.11,17.76,21.39-21.82-18.11-17.76-21.39,21.82ZM960.07,764.67l18.11,17.76,21.39-21.82-18.11-17.76-21.39,21.82ZM953.88,770.99l-21.39,21.82,18.11,17.76,21.39-21.82-18.11-17.76ZM925.56,842.42c3.66,10,8.22,19.57,13.69,28.6l29.59-30.18-18.11-17.76-23.43,23.9c-.6-1.51-1.18-3.03-1.74-4.55ZM941.74,875c6.17,9.54,13.37,18.45,21.66,26.58,8.29,8.13,17.34,15.16,26.99,21.14-1.24-.77-2.47-1.55-3.69-2.35l30.99-31.61-18.11-17.76-32.97,33.63c-1.08-1-2.15-2.01-3.21-3.04s-2.08-2.09-3.11-3.15l32.97-33.63-18.11-17.76-30.99,31.61c-.83-1.2-1.63-2.42-2.42-3.65ZM939.25,871.03c.77,1.28,1.56,2.55,2.37,3.8-.81-1.26-1.6-2.52-2.37-3.8ZM990.58,922.83c1.27.78,2.55,1.55,3.85,2.3-1.29-.75-2.57-1.51-3.85-2.3ZM1062.63,947.02c-1.85-.21-3.7-.44-5.54-.7l9.45-9.64-18.11-17.76-20.48,20.89c-1.56-.49-3.12-1-4.66-1.53,12.53,4.31,25.71,7.21,39.33,8.75ZM1062.66,947.02c5.15.58,10.36.97,15.63,1.16l-5.42-5.32-4.62,4.71c-1.87-.16-3.73-.34-5.59-.55ZM1084.47,948.31c-2.07-.02-4.13-.06-6.19-.13,2.06.07,4.12.12,6.19.13ZM1110.41,947c-2.24.24-4.47.45-6.7.63l14.84-15.14-18.11-17.76-21.39,21.82,11.95,11.72c-2.1.05-4.19.06-6.28.05,8.46.05,17.03-.39,25.68-1.31ZM1311.52,833.54c-1.88,2.23-3.81,4.44-5.76,6.64l-18.57-18.21-21.39,21.82,18.71,18.35c-.65.62-1.31,1.22-1.96,1.83,3.81-3.56,7.58-7.22,11.28-10.99,6.2-6.33,12.09-12.82,17.68-19.44ZM1384.17,668.26c-.2,2.2-.43,4.41-.68,6.62.26-2.21.49-4.42.68-6.62ZM1384.71,660.99c-.13,2.23-.3,4.46-.5,6.7.2-2.24.37-4.47.5-6.7ZM1385.03,642l-8.78-8.61-21.39,21.82,18.11,17.76,11.75-11.98c.37-6.39.47-12.72.31-18.99ZM1385.02,641.98c-.05-2.12-.14-4.24-.26-6.34.12,2.11.2,4.22.26,6.34ZM1357.71,548.34c.8,1.25,1.59,2.51,2.36,3.78-.77-1.27-1.55-2.53-2.36-3.78ZM1355.16,544.51c.82,1.2,1.62,2.4,2.41,3.62-.79-1.22-1.59-2.43-2.41-3.62ZM1339.03,524.73l-29.87,30.47,18.11,17.76,27.89-28.45c-4.79-6.98-10.17-13.59-16.13-19.78ZM1195.61,475.53l-11.75,11.98,18.11,17.76,21.39-21.82-8.78-8.61c2.13.01,4.25.06,6.36.13-8.33-.3-16.79-.12-25.34.55ZM1188.35,476.22c-2.19.24-4.39.51-6.59.81,2.2-.3,4.4-.57,6.59-.81ZM1195.6,475.53c-2.22.17-4.45.39-6.68.63,2.23-.24,4.46-.45,6.68-.63ZM1005.48,570.18c-3.69,3.77-7.27,7.6-10.74,11.48.59-.66,1.18-1.32,1.77-1.97l18.71,18.35,21.39-21.82-18.57-18.21c2.17-2,4.35-3.98,6.55-5.92-6.52,5.73-12.9,11.75-19.11,18.09ZM971.58,610.41l16.07,15.76,21.39-21.82-18.39-18.04c.76-.87,1.52-1.74,2.28-2.61-7.66,8.67-14.78,17.6-21.34,26.71ZM971.57,610.42c-.67.93-1.33,1.86-1.98,2.79.66-.93,1.31-1.86,1.98-2.79ZM914.3,781.18c-.06-2.09-.08-4.18-.08-6.28l11.95,11.72,21.39-21.82-18.11-17.76-14.84,15.14c.13-2.23.3-4.46.5-6.71-.76,8.67-1.03,17.26-.81,25.71ZM915.16,754.91c.2-2.2.43-4.41.68-6.62-.26,2.21-.49,4.42-.68,6.62ZM990.49,949.8c-15.87-8.14-30.55-18.57-43.6-31.37-13.05-12.8-23.77-27.27-32.22-42.98-5.97,32.57-16.92,76.48-35.6,112.17,35.3-19.39,78.98-31.2,111.42-37.81ZM746.92,1156.99l20.61-22.29c1.36-1.47,1.23-3.77-.29-5.08l-30.09-25.99c-1.38-1.19-3.45-1.14-4.76.13l-21.88,21.04c-1.5,1.44-1.44,3.86.13,5.22l31.36,27.24c1.44,1.25,3.62,1.13,4.92-.27ZM716.98,1189.18l20.61-22.3c1.36-1.47,1.23-3.76-.28-5.07l-31.8-27.64c-1.38-1.2-3.45-1.15-4.77.12l-21.88,21.04c-1.5,1.44-1.44,3.85.12,5.21l33.07,28.89c1.44,1.26,3.62,1.14,4.92-.26ZM764.04,1073.22l-21.87,21.04c-1.5,1.44-1.44,3.87.14,5.23l29.65,25.6c1.44,1.25,3.61,1.12,4.91-.28l20.6-22.29c1.36-1.47,1.23-3.78-.29-5.09l-28.38-24.35c-1.38-1.19-3.44-1.13-4.75.14ZM806.8,1092.62l21.21-22.95c1.3-1.41,1.25-3.59-.12-4.93l-24.91-24.43c-1.37-1.34-3.56-1.35-4.93-.02l-24.24,23.42c-1.5,1.45-1.43,3.87.16,5.23l27.94,23.96c1.44,1.24,3.61,1.11,4.9-.28ZM686.52,1221.93l21.13-22.86c1.35-1.46,1.23-3.75-.27-5.07l-33.52-29.29c-1.38-1.21-3.45-1.16-4.77.11l-20.64,19.76c-1.44,1.38-1.46,3.68-.03,5.08l33.03,32.39c1.42,1.4,3.72,1.34,5.07-.12ZM661.5,1254.68c1.99,1.95,5.19,1.92,7.15-.07l8.72-8.84c4.89-4.98,4.81-12.99-.18-17.87l-34.58-33.91c-4.98-4.89-12.98-4.81-17.87.18l-8.72,8.84c-1.95,1.99-1.92,5.19.07,7.15l45.4,44.53ZM807.65,1326.72c0-21.5-9.26-40.87-23.99-54.35-13.43,14.17-21.68,33.29-21.68,54.35s8.25,40.18,21.68,54.35c14.73-13.48,23.99-32.85,23.99-54.35ZM898.34,1381.07c13.43-14.17,21.68-33.29,21.68-54.35s-8.25-40.18-21.68-54.35c-14.73,13.48-23.99,32.85-23.99,54.35s9.26,40.87,23.99,54.35ZM890.45,1388.35c-16.48-15.41-26.81-37.33-26.81-61.62s10.33-46.21,26.81-61.62c-13.54-10.88-30.73-17.41-49.45-17.41s-35.91,6.53-49.45,17.41c16.48,15.41,26.81,37.33,26.81,61.62s-10.33,46.21-26.81,61.62c13.54,10.88,30.73,17.41,49.45,17.41s35.91-6.53,49.45-17.41ZM691.87,324.39l83.96-183.95,64.1,184.32h112.81l-.13-.37h.13L1100.8,0h-112.81l-84.11,184.27L839.93.37h-.17l.17-.37h-112.81l-148.06,324.39h112.81ZM1196.59,92.05l-106.22,232.72h112.81l106.39-233.09h112.11L1463.52,0l-338.42.37-41.84,91.68h113.34ZM329.68,324.76h112.81l106.39-233.09h112.11L702.82,0l-338.42.37-41.84,91.68h113.34l-106.22,232.72ZM1524.51,1114.15c-23.57,55.57-53.57,108.55-89.58,158.23,11.08-9.37,20.43-20.96,27.76-34.05,17.33-30.94,42.69-57.55,71.75-76,17.35-11.02,36.33-18.67,55.94-23.45l31.5-7.69c-10.83,24.41-21,43.56-29.58,58.06-24.09,40.75-62.44,69.37-106.28,78.12-7.1,1.42-13.58,2.3-19.1,2.84-11.81,1.16-23.25,4.95-33.77,10.91-2.25,1.28-6.09,3.8-8.72,5.41-8.47,11.17-17.24,22.18-26.32,32.99-21.86,26.03-45.66,51.01-70.9,74.56,12.72-5.63,24.37-13.81,34.55-23.94,24.57-24.47,55.76-42.35,88.4-51.27,19.49-5.33,39.68-6.93,59.73-5.59l32.23,2.15c-16.66,20.16-31.33,35.48-43.29,46.81-33.59,31.84-77.75,47.72-122.09,42.85-7.19-.79-13.63-1.9-19.07-3.05-11.64-2.46-23.6-2.29-35.23.26-1.79.39-3.67.83-5.59,1.29-40.61,36.68-84.65,69.6-130.11,97.16,12.73-3.58,24.79-9.59,35.77-17.6,27.7-20.21,61.02-32.85,94.53-36.39,20-2.11,40.19-.43,59.82,4.15l31.56,7.35c-19.28,17.24-35.92,30-49.32,39.28-37.64,26.05-83.5,34.59-126.66,22.6-6.99-1.94-13.21-4.09-18.42-6.11-11.16-4.32-23.01-6.08-34.86-5.45-2.02.11-4.14.25-6.33.41-51.01,29.51-103.53,52.14-154.76,65.72,12.94.36,25.99-1.69,38.62-5.88,32.55-10.8,68.13-12.66,101.12-5.81,19.7,4.09,38.4,11.86,55.71,22.2l27.81,16.62c-23.62,10.54-43.36,17.62-58.94,22.36-43.79,13.32-90.08,7.47-127.52-17.12-6.07-3.98-11.33-7.93-15.68-11.44-9.31-7.52-20.06-12.82-31.53-15.83-1.63-.43-3.33-.85-5.08-1.28-5.33,1.23-10.64,2.36-15.93,3.38-26.18,5.04-52.07,11.43-77.77,18.54-16.19,4.48-33.42,9.78-50.91,15.71,37.39,14.17,76.27,31.49,106.46,50.86l-.45.71c.15.1.31.19.45.29l-5.75,8.97c-31.6-20.28-74.65-39.36-117.68-54.89-43.03,15.52-86.08,34.61-117.68,54.89l-5.75-8.97c.15-.1.31-.19.45-.29l-.45-.71c30.19-19.37,69.07-36.7,106.46-50.86-17.49-5.94-34.72-11.23-50.91-15.71-25.69-7.11-51.59-13.5-77.77-18.54-5.29-1.02-10.6-2.16-15.93-3.38-1.75.42-3.45.85-5.08,1.28-11.47,3.01-22.22,8.31-31.53,15.83-4.35,3.51-9.62,7.45-15.68,11.44-37.44,24.58-83.73,30.44-127.52,17.12-15.59-4.74-35.33-11.82-58.94-22.36l27.81-16.62c17.31-10.35,36.01-18.11,55.71-22.2,32.99-6.85,68.57-4.99,101.12,5.81,12.63,4.19,25.68,6.24,38.62,5.88-51.23-13.57-103.75-36.21-154.76-65.72-2.2-.17-4.31-.31-6.33-.41-11.85-.63-23.69,1.13-34.86,5.45-5.21,2.02-11.43,4.16-18.42,6.11-43.16,11.99-89.02,3.44-126.66-22.6-13.4-9.27-30.04-22.04-49.32-39.28l31.56-7.35c19.64-4.57,39.82-6.26,59.82-4.15,33.51,3.54,66.82,16.17,94.53,36.39,10.98,8.01,23.05,14.02,35.77,17.6-45.46-27.56-89.5-60.48-130.11-97.16-1.92-.46-3.8-.9-5.59-1.29-11.63-2.54-23.59-2.72-35.23-.26-5.44,1.15-11.88,2.26-19.07,3.05-44.34,4.86-88.51-11.01-122.09-42.85-11.96-11.33-26.63-26.65-43.29-46.81l32.23-2.15c20.06-1.34,40.25.26,59.73,5.59,32.64,8.92,63.82,26.81,88.4,51.27,10.17,10.13,21.83,18.31,34.55,23.94-25.24-23.54-49.04-48.52-70.9-74.56-9.08-10.82-17.85-21.82-26.32-32.99-2.63-1.61-6.47-4.13-8.72-5.41-10.51-5.96-21.96-9.75-33.77-10.91-5.52-.54-11.99-1.42-19.1-2.84-43.84-8.75-82.18-37.37-106.28-78.12-8.58-14.51-18.75-33.65-29.58-58.06l31.5,7.69c19.61,4.79,38.59,12.43,55.94,23.45,29.06,18.45,54.42,45.07,71.75,76,7.33,13.09,16.68,24.69,27.77,34.05-36.01-49.68-66.01-102.66-89.58-158.23-1.16-1.09-2.29-2.16-3.4-3.17-9.06-8.31-19.47-14.72-30.77-18.65-5.27-1.84-11.42-4.23-18.07-7.3-41.02-18.93-72.7-55.95-88.04-101.43-5.46-16.19-11.55-37.29-17.22-63.67l29.2,14.97c18.17,9.32,35.16,21.28,49.88,36.14,24.66,24.9,44.07,56.88,54.78,91.18,3.87,12.4,9.4,24.09,16.5,34.57-.16-.4-.32-.8-.48-1.19-23.23-58.91-38.51-118.7-45.69-178.56-1.07-1.91-2.13-3.74-3.15-5.49-6.38-10.86-14.57-20.34-24.28-27.74-4.54-3.46-9.75-7.73-15.26-12.8-34-31.32-54.14-76.89-56.35-125.27-.79-17.22-.83-39.33.96-66.36l23.79,23.72c14.81,14.76,27.76,31.67,37.76,50.61,16.74,31.73,26.54,68.54,27.39,104.75.33,14.16,2.74,28.14,7.3,41.33-1.94-20.65-2.92-41.31-2.92-61.93,0-38.65,2.78-80.86,8.17-124.93-.7-2.01-1.4-3.95-2.08-5.8-4.42-11.96-10.85-22.92-19.13-32.15-3.87-4.31-8.26-9.55-12.81-15.65-28.07-37.62-40.09-86.46-34.03-134.44,2.16-17.08,5.88-38.82,12.25-65.02l19.34,28.1c12.04,17.49,21.88,36.71,28.48,57.34,11.05,34.55,14.4,72.7,9.06,108.45-2.25,15.07-2.09,30.42.69,45.32,12.5-93.6,36.52-194.65,70.59-287.29.22-6.35-.12-12.71-1.06-19-.89-5.93-1.71-12.96-2.21-20.78-3.09-48.27,12.89-95.91,43.23-131.72,10.8-12.75,25.34-28.37,44.41-46.04l.98,35.05c.61,21.81-1.49,43.71-7,64.77-9.23,35.27-26.65,68.76-49.93,94.94-7.09,7.98-13.23,16.86-18.21,26.45-22.56,61.22-40.68,126.17-53.94,190.16,7.55-12.07,13.05-25.52,16.45-39.67,8.44-35.13,25.72-68.74,48.69-95.75,13.72-16.13,29.89-29.57,47.41-40.49l28.16-17.54c-3.93,26.8-8.62,48.36-13.01,64.98-12.33,46.68-41.52,86.4-81.22,108.95-6.43,3.65-12.41,6.59-17.55,8.89-11.01,4.93-20.98,12.25-29.48,21.34-.68.73-1.38,1.49-2.08,2.25-15.36,77.84-23.44,153.78-23.44,219.27,0,8.39.17,16.78.5,25.18,6.11-15.39,9.15-32,9.26-48.8.24-36.22,9.42-73.21,25.63-105.27,9.68-19.14,22.35-36.3,36.9-51.35l23.39-24.19c2.25,26.99,2.57,49.1,2.07,66.33-1.41,48.41-20.78,94.37-54.25,126.36-5.42,5.18-10.57,9.56-15.04,13.1-9.58,7.59-17.61,17.23-23.81,28.21-1.18,2.08-2.39,4.29-3.63,6.61,4.07,72.6,20.35,145.42,48.56,216.96.3.76.61,1.52.92,2.29.76-14.29-.83-28.64-4.52-42.46-9.28-34.79-10.19-73.09-3.07-108.84,4.25-21.34,11.89-41.72,21.89-60.66l16.07-30.44c9.24,25.17,15.36,46.26,19.4,62.93,11.36,46.84,4.86,96.9-18.82,137.93-3.84,6.65-7.62,12.43-10.98,17.22-7.19,10.25-12.36,21.97-15.42,34.43-.06.23-.11.46-.17.69,25.35,61.01,58.57,118.91,99.06,172.74-3.19-14.31-8.78-27.88-16.33-40.2-18.47-30.15-29.93-66.38-33.03-102.81-1.85-21.75-.2-43.67,4.1-65.01l6.91-34.28c15.77,20.99,27.44,39.1,35.91,53.68,23.79,40.96,31.44,90.83,20.2,137.7-1.82,7.6-3.83,14.35-5.71,20.01-4.03,12.12-5.71,25-5.18,37.87.03.71.06,1.43.1,2.16,6.71,8.67,13.62,17.23,20.71,25.68,33.29,39.65,71.04,76.75,111.49,109.93-5.67-11.01-12.91-21.03-21.36-29.81-24.1-25.02-42.6-57.64-52.97-92.44-6.19-20.78-9.01-42.56-9.11-64.4l-.17-35.09c19.62,16.72,34.66,31.61,45.86,43.82,31.47,34.3,48.99,81.13,47.48,129.54-.24,7.84-.84,14.91-1.53,20.88-1.39,11.94-.64,24.04,2,35.72,46.26,36.78,95.79,68.4,146.08,92.88-7.12-14.8-17.01-27.83-28.85-38.58-25.72-23.35-46.35-54.66-59.02-88.69-7.56-20.32-11.83-41.87-13.39-63.65l-2.52-35c20.69,15.37,36.69,29.23,48.69,40.66,33.69,32.12,54.3,77.67,56.03,126.08.28,7.84.16,14.93-.13,20.94-.63,12.86,1.19,25.72,5.13,37.93.39,1.22.81,2.48,1.24,3.75,48.86,23.09,98.3,39.37,146.03,47.02l25.7,5.39c8.15,1.94,21.59,5.49,38.28,10.42-11.36-9.52-24.21-16.82-37.82-21.78-32.64-11.89-63.58-33.07-88.17-59.77-14.68-15.94-26.78-34.28-36.47-53.85l-15.56-31.45c24.97,6.4,45.02,13.17,60.44,19.22,43.34,16.99,79.64,51.36,99.54,95.51,3.23,7.16,5.79,13.76,7.79,19.43,4.28,12.14,10.83,23.36,19.09,33.17.8.95,1.64,1.93,2.5,2.92,15.91,4.87,34.01,10.77,52.92,17.56,18.91-6.79,37.01-12.69,52.92-17.56.85-.99,1.69-1.97,2.5-2.92,8.26-9.81,14.81-21.03,19.09-33.17,2-5.67,4.57-12.28,7.79-19.43,19.9-44.15,56.21-78.53,99.54-95.51,15.43-6.05,35.47-12.82,60.44-19.22l-15.56,31.45c-9.69,19.57-21.78,37.91-36.47,53.85-24.6,26.71-55.54,47.89-88.17,59.77-13.62,4.96-26.46,12.26-37.82,21.78,16.69-4.92,30.13-8.47,38.28-10.42l25.7-5.39c47.73-7.65,97.17-23.93,146.03-47.02.43-1.28.85-2.54,1.24-3.75,3.93-12.2,5.75-25.07,5.13-37.93-.29-6.01-.41-13.1-.13-20.94,1.73-48.4,22.34-93.96,56.03-126.08,11.99-11.43,27.99-25.29,48.69-40.66l-2.52,35c-1.57,21.78-5.83,43.33-13.39,63.65-12.67,34.03-33.3,65.34-59.02,88.69-11.84,10.75-21.72,23.78-28.85,38.58,50.29-24.48,99.82-56.1,146.08-92.88,2.64-11.68,3.38-23.77,2-35.72-.69-5.97-1.29-13.04-1.53-20.88-1.51-48.41,16.01-95.24,47.48-129.54,11.2-12.21,26.24-27.1,45.86-43.82l-.17,35.09c-.11,21.84-2.92,43.63-9.11,64.4-10.37,34.8-28.87,67.42-52.97,92.44-8.45,8.77-15.69,18.79-21.36,29.81,40.46-33.18,78.2-70.28,111.49-109.93,7.09-8.45,14-17.01,20.71-25.68.03-.73.07-1.45.1-2.16.53-12.87-1.16-25.75-5.18-37.87-1.88-5.66-3.89-12.41-5.71-20.01-11.24-46.87-3.59-96.74,20.2-137.7,8.47-14.58,20.13-32.7,35.91-53.68l6.91,34.28c4.3,21.33,5.95,43.26,4.1,65.01-3.1,36.42-14.56,72.66-33.03,102.81-7.54,12.32-13.14,25.89-16.33,40.2,40.49-53.83,73.71-111.73,99.06-172.74-.06-.23-.11-.46-.17-.69-3.06-12.45-8.22-24.18-15.42-34.43-3.36-4.79-7.14-10.57-10.98-17.22-23.68-41.04-30.18-91.09-18.82-137.93,4.04-16.67,10.16-37.76,19.4-62.93l16.07,30.44c10,18.94,17.64,39.32,21.89,60.66,7.12,35.75,6.2,74.05-3.07,108.84-3.68,13.82-5.27,28.17-4.52,42.46.3-.76.61-1.52.92-2.29,28.21-71.54,44.49-144.35,48.56-216.96-1.24-2.32-2.45-4.53-3.63-6.61-6.2-10.98-14.23-20.62-23.81-28.21-4.48-3.55-9.62-7.92-15.04-13.1-33.47-31.99-52.84-77.95-54.25-126.36-.5-17.23-.18-39.34,2.07-66.33l23.39,24.19c14.56,15.05,27.23,32.21,36.9,51.35,16.21,32.06,25.39,69.05,25.63,105.27.11,16.8,3.15,33.41,9.26,48.8.33-8.4.5-16.79.5-25.18,0-65.5-8.08-141.43-23.44-219.27-.7-.77-1.4-1.52-2.08-2.25-8.5-9.09-18.47-16.41-29.48-21.34-5.14-2.3-11.12-5.24-17.55-8.89-39.7-22.54-68.89-62.26-81.22-108.95-4.39-16.62-9.08-38.18-13.01-64.98l28.16,17.54c17.53,10.91,33.7,24.36,47.41,40.49,22.98,27.02,40.26,60.62,48.69,95.75,3.4,14.15,8.9,27.6,16.45,39.67-13.26-63.99-31.38-128.94-53.94-190.16-4.98-9.59-11.11-18.47-18.21-26.45-23.27-26.18-40.7-59.68-49.93-94.94-5.51-21.06-7.61-42.95-7-64.77l.98-35.05c19.07,17.67,33.61,33.29,44.41,46.04,30.34,35.81,46.32,83.45,43.23,131.72-.5,7.82-1.33,14.85-2.21,20.78-.94,6.29-1.28,12.65-1.06,19,34.07,92.63,58.09,193.69,70.59,287.29,2.79-14.89,2.94-30.25.69-45.32-5.34-35.75-1.98-73.9,9.06-108.45,6.59-20.63,16.44-39.85,28.48-57.34l19.34-28.1c6.37,26.2,10.1,47.94,12.25,65.02,6.06,47.99-5.96,96.82-34.03,134.44-4.55,6.1-8.95,11.34-12.81,15.65-8.28,9.23-14.71,20.19-19.13,32.15-.68,1.85-1.38,3.79-2.08,5.8,5.39,44.07,8.17,86.28,8.17,124.93,0,20.62-.98,41.27-2.92,61.93,4.56-13.19,6.97-27.17,7.3-41.33.85-36.21,10.65-73.02,27.39-104.75,10-18.94,22.95-35.85,37.76-50.61l23.79-23.72c1.8,27.03,1.75,49.14.96,66.36-2.22,48.38-22.35,93.95-56.35,125.27-5.51,5.08-10.72,9.35-15.26,12.8-9.71,7.4-17.9,16.88-24.28,27.74-1.02,1.74-2.08,3.58-3.15,5.49-7.18,59.86-22.46,119.65-45.69,178.56-.16.4-.32.8-.48,1.19,7.1-10.48,12.63-22.17,16.5-34.57,10.71-34.3,30.12-66.28,54.78-91.18,14.72-14.86,31.71-26.83,49.89-36.14l29.2-14.97c-5.67,26.39-11.76,47.49-17.22,63.67-15.34,45.48-47.02,82.49-88.04,101.43-6.65,3.07-12.79,5.46-18.07,7.3-11.29,3.93-21.7,10.34-30.77,18.65-1.1,1.01-2.24,2.07-3.4,3.17ZM1544.94,1088.35c19.2-14.67,36.85-31.59,53.41-49.64,16.31-18.26,32.23-37.46,43.98-59.6-27.56,32.59-57.08,63.53-85.37,95.3-4.05,4.58-8.14,9.14-12.03,13.94ZM1591.03,884.45c14.32-20.21,26.55-42.06,37.44-64.64,10.58-22.7,20.54-46.17,25.71-71.11-17.41,40.01-37.14,79.08-55.47,118.56-2.62,5.68-5.27,11.35-7.67,17.2ZM1581.76,678.46c10.63-22.74,18.93-46.68,25.77-71.06,6.53-24.44,12.31-49.51,13.14-75.06-10.29,42.83-23.02,85.19-34.31,127.67-1.61,6.11-3.25,12.21-4.61,18.44ZM1530.79,592.26c-3.57-5.14-7.34-10.04-11.09-14.97-26.15-34.2-53.58-67.67-78.95-102.61,10.28,23.11,24.91,43.67,39.99,63.33,15.35,19.47,31.85,37.91,50.05,54.25ZM1557.55,840.13c-2.3-5.89-4.86-11.61-7.38-17.34-17.67-39.83-36.74-79.28-53.48-119.63,4.75,25.04,14.32,48.7,24.51,71.61,10.5,22.79,22.37,44.88,36.35,65.37ZM1487.63,386.14c1.92,6.02,3.8,12.06,5.98,18.03-3.32-25.28-9.19-50.11-16.47-74.41-7.58-24.15-16.1-48.37-28.93-69.94,14.22,41.62,26.2,84.36,39.42,126.31ZM1514.71,1074.25c-.66-6.36-1.61-12.64-2.52-18.91-6.48-43.65-14.4-87.38-19.85-131.24-2.02,25.47.94,51.11,4.7,76.23,4.08,25.1,9.65,49.95,17.68,73.93ZM1417.11,1255.33c1.13-6.28,1.96-12.58,2.82-18.86,5.9-43.75,10.43-88.04,17.37-131.66-8.97,23.63-13.24,49.06-16.6,74.24-3.05,25.27-4.61,50.8-3.59,76.28ZM1279.63,1405.94c2.37-5.86,4.45-11.8,6.56-17.73,14.58-41.28,27.94-83.42,43.5-124.32-13.52,20.92-22.82,44.71-31.18,68.48-8.07,23.93-14.74,48.46-18.89,73.57ZM1129.93,1496.87c2.76-5.69,5.23-11.48,7.73-17.25,17.3-40.21,33.45-81.36,51.71-121.13-14.88,19.97-25.75,43.08-35.68,66.24-9.65,23.34-17.95,47.37-23.76,72.15ZM918.48,1570.92c4.7-4.22,9.18-8.65,13.68-13.05,31.22-30.68,61.73-62.67,93.67-92.57-21.33,12.86-40.13,30.14-58.08,47.82-17.76,17.96-34.53,37.06-49.27,57.8ZM763.52,1570.92c-14.75-20.74-31.51-39.84-49.27-57.8-17.95-17.68-36.75-34.97-58.08-47.82,31.94,29.91,62.45,61.89,93.67,92.57,4.5,4.4,8.98,8.82,13.68,13.05ZM552.07,1496.87c-5.81-24.77-14.1-48.8-23.76-72.15-9.93-23.16-20.8-46.27-35.68-66.24,18.26,39.77,34.41,80.92,51.71,121.13,2.5,5.77,4.97,11.56,7.73,17.25ZM402.37,1405.94c-4.14-25.11-10.81-49.64-18.89-73.57-8.36-23.77-17.66-47.56-31.18-68.48,15.57,40.9,28.93,83.04,43.5,124.32,2.11,5.93,4.19,11.87,6.56,17.73ZM262.07,1236.46c.86,6.29,1.69,12.58,2.82,18.86,1.02-25.48-.54-51.01-3.59-76.28-3.36-25.18-7.64-50.61-16.6-74.24,6.94,43.61,11.47,87.91,17.37,131.66ZM167.29,1074.25c8.02-23.97,13.59-48.82,17.68-73.93,3.76-25.12,6.71-50.76,4.7-76.23-5.45,43.86-13.37,87.59-19.85,131.24-.91,6.28-1.86,12.55-2.52,18.91ZM124.45,840.13c13.98-20.49,25.85-42.58,36.35-65.37,10.2-22.91,19.76-46.57,24.51-71.61-16.74,40.35-35.81,79.8-53.48,119.63-2.52,5.73-5.08,11.45-7.38,17.34ZM151.21,592.26c18.2-16.34,34.71-34.78,50.05-54.25,15.08-19.66,29.71-40.21,39.99-63.33-25.37,34.94-52.8,68.41-78.95,102.61-3.75,4.93-7.52,9.83-11.09,14.97ZM100.24,678.46c-1.36-6.23-3-12.33-4.61-18.44-11.29-42.48-24.02-84.85-34.31-127.67.83,25.55,6.62,50.62,13.14,75.06,6.85,24.38,15.14,48.32,25.77,71.06ZM90.97,884.45c-2.4-5.85-5.05-11.51-7.67-17.2-18.33-39.47-38.06-78.54-55.47-118.56,5.17,24.94,15.13,48.41,25.71,71.11,10.88,22.58,23.12,44.43,37.44,64.64ZM188.4,404.18c2.18-5.97,4.06-12.01,5.98-18.03,13.22-41.95,25.2-84.69,39.42-126.31-12.83,21.56-21.35,45.78-28.93,69.94-7.29,24.3-13.15,49.13-16.47,74.41ZM137.06,1088.35c-3.89-4.81-7.97-9.36-12.03-13.94-28.29-31.78-57.81-62.71-85.37-95.3,11.75,22.14,27.68,41.34,43.98,59.6,16.56,18.05,34.22,34.97,53.41,49.64ZM227.66,1263.06c-4.76-3.77-9.66-7.25-14.53-10.76-33.99-24.31-69-47.5-102.44-72.78,15.91,18.82,35.3,33.79,54.88,47.75,19.79,13.69,40.41,26.02,62.09,35.79ZM334.59,1391.36c-5.54-2.18-11.13-4.04-16.72-5.93-38.87-13.06-78.45-24.73-117.04-38.89,20.11,13.26,42.57,21.76,64.95,29.24,22.51,7.16,45.48,12.76,68.8,15.58ZM476.64,1501.8c-5.78-1.26-11.57-2.19-17.35-3.16-40.24-6.62-80.99-11.75-121.11-19.5,21.73,9.86,45.11,14.63,68.28,18.4,23.25,3.43,46.73,5.25,70.18,4.26ZM647.34,1581.36c-5.89.57-11.68,1.45-17.49,2.29-40.34,5.98-80.72,13.52-121.28,18.38,23.7,2.76,47.42.17,70.63-3.31,23.19-3.82,46.11-9.26,68.14-17.36ZM1034.66,1581.36c22.03,8.1,44.95,13.53,68.14,17.36,23.21,3.48,46.94,6.07,70.63,3.31-40.57-4.86-80.94-12.4-121.28-18.38-5.8-.84-11.6-1.72-17.49-2.29ZM1205.36,1501.8c23.45.99,46.93-.83,70.18-4.26,23.17-3.77,46.55-8.54,68.28-18.4-40.12,7.75-80.87,12.88-121.11,19.5-5.78.97-11.57,1.9-17.35,3.16ZM1347.41,1391.36c23.33-2.82,46.29-8.42,68.8-15.58,22.38-7.48,44.84-15.98,64.95-29.24-38.59,14.15-78.16,25.83-117.04,38.89-5.58,1.89-11.18,3.75-16.72,5.93ZM1454.34,1263.06c21.68-9.77,42.3-22.1,62.09-35.79,19.58-13.96,38.97-28.92,54.88-47.75-33.43,25.27-68.45,48.47-102.44,72.78-4.88,3.51-9.77,6.99-14.53,10.76Z"/>
  <path class="st0" d="M1045.57,1872.79l-17.44.08-15.82-40.04-14.25,40.03h-17.1s22.27-62.82,22.27-62.82l18.16-.03,15.37,38.9,13.7-38.86,17.49-.02-22.38,62.76ZM1164.38,1822.35l-14.01,41.97c-.5,1.51-.39,2.98.35,4.36.94,1.75,2.85,3.22,5.04,3.87l11.38.25,38.98.07,13.2-37.4-27.32.08-4.04,11.74,10.47.14-4.36,13.02-19.83.14c-1.14,0-2.24-.63-3.02-1.72-.83-1.16-1.08-2.52-.7-3.64l10.16-29.34c.71-2.06,3.31-3.45,5.29-3.46l36.59-.07,4.12-12.35-48.48.02c-6.83.91-11.36,4.95-13.82,12.32ZM1305.9,1835.44l-26.73.06,8.92-25.47h-17.47s-21.79,62.84-21.79,62.84l17.39-.1,8.72-25.46,26.69-.02-8.77,25.54,17.22-.03,21.66-62.77h-17.52s-8.31,25.4-8.31,25.4ZM1087.23,1872.84l17.4-.2,21.61-62.63-17.4.07-21.62,62.75ZM1368.09,1810.04l-4.24,12.34,23.11.04-17.42,50.32h17.19s17.01-50.31,17.01-50.31l22.1-.06,4.14-12.35-61.91.02ZM559.72,1817.22l-7.56,21.21c-.68,1.91-.24,4.3,1.1,5.94.95,1.17,3.25,2.8,5.09,2.81l28.95.22-2.52,9.39c-.48,1.8-3.01,3.71-4.92,3.71l-34.8.04-4.29,12.29,42.17.08c3.8,0,12.94-.82,15.65-8.41l7.49-21.04c.61-1.72-.17-4.29-1.28-5.61-.77-.92-2.97-2.28-4.66-2.29l-29-.23.43-2.76c.53-3.36,1.43-6.02,3.03-8.9l.69-1.24,37.22-.06,4.2-12.34-45.02.05c-4.53,0-10.39,2.74-11.96,7.15ZM395.42,1855.2c-.69,1.97-1.85,5.28-6.19,5.29l-15.2.05c-1.68,0-3.51-1.65-4.07-2.57l-.58-.97,16.33-46.95-17.47.03-18.16,53.3c-.79,2.8-.55,4.86.77,6.67.84,1.15,3.33,2.74,5.5,2.74l41.05-.23c6.24-.04,11.04-5.55,12.85-10.65l18.4-51.85h-17.31s-15.92,45.14-15.92,45.14ZM448.43,1872.86l51.33.04,4.29-12.36-33.57-.02,4.51-13.23,32.08-.02,4.16-11.77-32.17-.13,4.53-12.95,34.26-.1,4.29-12.31h-52.09s-21.61,62.84-21.61,62.84ZM252,1822.38l25.59.06-18.16,50.33,19.11-.05,17.7-50.27,24.57-.08,4.31-12.35h-68.77s-4.35,12.36-4.35,12.36ZM865.94,1872.8l8.51-24.65,17.73-17.29,21.04-20.81-19.63-.02-23.66,24.42-8.42-24.44-19.11.05,6,15.4,8.88,23.54-8.53,23.86,17.19-.05ZM712.71,1812.96c1.22,1.57,1.69,4.21,1.08,6.01l-13.78,40.21c-2.16,6.3-7.05,13.81-18.09,13.81l-34.04-.19-10.82-.05,21.81-62.71,48.72.08c1.91,0,4.21,1.65,5.13,2.83ZM693.58,1824.53c-.83-2.12-3.75-2.18-4.08-2.18h-.01l-17.76.12-13.29,38.08,19.67-.09c2.96-.01,5.35-2,6.09-5.05l9.59-27.5.03-.3c.12-1.34.04-2.37-.23-3.07ZM750.61,1872.78l-17.38-.06,45.23-62.61,22.11-.11,4.81,62.84-17.73.06-.73-11.1-28.57-.04-7.74,11.01ZM766.29,1850.73l20.28-.04-1.55-26.95-18.73,26.99ZM909.19,1974.97l-15.56-39.13-18.21.08-22.7,64.05,17.34-.02,14.37-41.1,16.28,41.15,17.13-.1,22.33-64.04-17.3.03-13.7,39.07ZM792.57,1975.02l-15.42-39.18-18.07.05-22.54,64.08,17.23-.02,14.38-41.04,16.05,41.07,17.14-.08,22.36-64.04h-17.52s-13.62,39.15-13.62,39.15ZM1054.71,1944.39l-6.9,20.46c-.6,1.76-.25,3.74.94,5.43,1.3,1.84,3.33,2.96,5.41,2.99l29.66.43-.2,2.57c-.29,3.72-1.27,6.54-3.27,9.41l-.72,1.04-39.27.03-4.6,13.21,50.1-.13c4.6-.01,9.91-3.7,11.37-7.9l7.73-22.21c.85-2.43-.16-4.41-.84-5.38-1.29-1.83-3.44-2.99-5.61-3.01l-30.16-.31,1.66-8.29c.52-2.55,3.01-4.63,5.55-4.63h36.34l4.1-12.23-48.45-.02c-6.14.25-11.18,3.6-12.84,8.54ZM632.9,1999.96l52.04.03,4.45-13.23-34.02-.05,4.52-13.21,32.27-.02,4.11-11.96-32.07-.11,4.69-13.27,34.47-.03,4.13-12.25-52.27.02-22.32,64.09ZM534.87,1948.12l24.33-.02-18.95,51.88,19.91-.11,18.47-51.78,23.62.02,4.34-12.27-67.37.03-4.34,12.24ZM968.77,1999.99l17.33-.04,22-64.06-17.21.04-22.12,64.06Z"/>
</svg>